<svg xmlns="http://www.w3.org/2000/svg" width="600" height="400" viewBox="0 0 600 400"><rect width="100%" height="100%" fill="#1A1A1A"/><path fill="#B3B3B3" d="M143.04 182.595h-16.69v11.13h14.09v5.59h-14.09v15.31h-7.02v-37.6h23.71zm10.37 6.97.39 3.01q1.25-2.39 2.97-3.76 1.71-1.36 4.05-1.36 1.85 0 2.97.81l-.42 4.81q-.13.46-.38.66-.24.19-.66.19-.39 0-1.16-.13-.76-.13-1.49-.13-1.07 0-1.9.32-.83.31-1.49.89-.67.59-1.17 1.42-.51.83-.95 1.9v16.43h-6.43v-26.68h3.77q.99 0 1.38.35.39.36.52 1.27m13.94-1.62h6.45v26.68h-6.45zm7.33-7.77q0 .83-.34 1.56t-.89 1.27q-.56.55-1.32.87-.75.33-1.61.33-.83 0-1.57-.33-.74-.32-1.29-.87-.55-.54-.87-1.27-.33-.73-.33-1.56 0-.86.33-1.61.32-.76.87-1.3.55-.55 1.29-.87.74-.33 1.57-.33.86 0 1.61.33.76.32 1.32.87.55.54.89 1.3.34.75.34 1.61m10.74 18.04h12.11q0-1.24-.35-2.35-.35-1.1-1.05-1.94-.7-.83-1.78-1.31t-2.51-.48q-2.78 0-4.38 1.59-1.6 1.58-2.04 4.49m16.38 3.88h-16.51q.15 2.05.73 3.55.57 1.49 1.5 2.47.94.97 2.23 1.45 1.28.48 2.84.48t2.7-.36q1.13-.36 1.97-.81.85-.44 1.48-.8.64-.37 1.24-.37.8 0 1.19.6l1.85 2.34q-1.07 1.25-2.39 2.09-1.33.85-2.77 1.36-1.44.5-2.94.71-1.49.21-2.9.21-2.78 0-5.17-.92-2.39-.93-4.16-2.73-1.77-1.81-2.78-4.48-1.02-2.66-1.02-6.17 0-2.73.89-5.14.88-2.4 2.53-4.18t4.03-2.82 5.37-1.04q2.52 0 4.65.8 2.14.81 3.67 2.36 1.53 1.54 2.41 3.79.87 2.25.87 5.14 0 1.45-.32 1.96-.31.51-1.19.51m11.88-12.98.44 2.11q.81-.81 1.71-1.5.89-.68 1.89-1.17 1-.48 2.15-.75 1.14-.27 2.49-.27 2.19 0 3.88.74t2.82 2.08 1.72 3.2q.58 1.86.58 4.09v16.98h-6.42v-16.98q0-2.44-1.12-3.78t-3.41-1.34q-1.66 0-3.12.75-1.45.76-2.75 2.06v19.29h-6.42v-26.68h3.92q1.25 0 1.64 1.17m40.51 17.61v-11.96q-1.09-1.33-2.38-1.88-1.29-.54-2.77-.54-1.46 0-2.63.54-1.17.55-2 1.65-.83 1.11-1.27 2.81-.44 1.71-.44 4.02 0 2.34.37 3.97.38 1.62 1.08 2.65.7 1.02 1.72 1.48 1.01.45 2.26.45 2 0 3.41-.83 1.4-.83 2.65-2.36m0-30.74h6.42v38.64h-3.93q-1.27 0-1.61-1.17l-.54-2.57q-1.62 1.84-3.71 2.99-2.09 1.14-4.87 1.14-2.19 0-4.01-.91t-3.13-2.64-2.03-4.28q-.71-2.54-.71-5.82 0-2.96.8-5.51.81-2.55 2.32-4.42 1.5-1.87 3.61-2.93 2.11-1.05 4.73-1.05 2.24 0 3.82.7 1.59.7 2.84 1.9zm30.5 14.85-1.46 2.31q-.26.42-.55.59-.28.17-.72.17-.47 0-1-.26-.54-.26-1.24-.59-.7-.32-1.6-.58t-2.12-.26q-1.9 0-2.97.8-1.08.81-1.08 2.11 0 .86.56 1.44.55.59 1.48 1.03.92.44 2.09.79t2.38.77 2.38.95 2.09 1.35 1.48 1.96q.56 1.15.56 2.76 0 1.92-.69 3.55-.69 1.62-2.04 2.81-1.35 1.18-3.34 1.84-1.99.67-4.59.67-1.38 0-2.69-.25t-2.52-.69-2.24-1.04q-1.02-.6-1.8-1.3l1.48-2.44q.28-.45.67-.68t.99-.23 1.13.33q.54.34 1.24.73t1.65.73 2.4.34q1.15 0 1.97-.28.82-.27 1.35-.71t.78-1.03q.25-.58.25-1.21 0-.93-.56-1.53t-1.48-1.04q-.93-.44-2.11-.79t-2.42-.77q-1.23-.42-2.42-.98-1.18-.55-2.1-1.41-.93-.86-1.48-2.11-.56-1.25-.56-3.01 0-1.64.65-3.12.65-1.49 1.91-2.59 1.26-1.11 3.14-1.77 1.89-.66 4.36-.66 2.75 0 5.02.91 2.26.91 3.77 2.39m26.67 9.59h11.96l-4.57-12.5q-.34-.83-.71-1.98-.36-1.14-.72-2.47-.34 1.33-.71 2.48-.36 1.16-.7 2.02zm9.54-23.4 14.77 37.6h-5.41q-.91 0-1.48-.46-.57-.45-.86-1.13l-2.8-7.67h-15.58l-2.81 7.67q-.2.6-.8 1.1-.6.49-1.48.49h-5.46l14.79-37.6zm23.33 12.54.39 3.01q1.24-2.39 2.96-3.76 1.72-1.36 4.06-1.36 1.84 0 2.96.81l-.42 4.81q-.13.46-.37.66-.25.19-.67.19-.39 0-1.15-.13-.77-.13-1.5-.13-1.06 0-1.9.32-.83.31-1.49.89-.66.59-1.17 1.42t-.95 1.9v16.43h-6.42v-26.68h3.77q.99 0 1.38.35.39.36.52 1.27m23.47 11.07q1.2 0 2.08-.32.89-.33 1.47-.9.59-.57.89-1.38.3-.8.3-1.77 0-1.97-1.19-3.13-1.18-1.16-3.55-1.16-2.36 0-3.54 1.16-1.19 1.16-1.19 3.13 0 .94.3 1.75.3.8.89 1.39.58.58 1.48.91.89.32 2.06.32m7.26 15.19q0-.78-.47-1.28-.47-.49-1.27-.77-.81-.27-1.89-.4t-2.29-.19q-1.21-.07-2.49-.12-1.29-.05-2.51-.21-1.07.6-1.73 1.41-.66.8-.66 1.87 0 .7.35 1.31t1.12 1.05q.76.45 1.98.69 1.23.25 2.99.25 1.8 0 3.1-.27 1.3-.28 2.14-.76.85-.48 1.24-1.14t.39-1.44m-1.28-26.97h7.67v2.4q0 1.14-1.37 1.4l-2.4.44q.55 1.38.55 3.02 0 1.97-.79 3.57-.8 1.6-2.2 2.72t-3.31 1.73q-1.92.61-4.13.61-.78 0-1.5-.08-.73-.08-1.43-.21-1.25.76-1.25 1.69 0 .81.74 1.19.74.37 1.96.53t2.78.19q1.56.04 3.2.17t3.2.46q1.56.32 2.78 1.03 1.22.7 1.97 1.91.74 1.21.74 3.1 0 1.77-.87 3.44-.88 1.66-2.53 2.96t-4.05 2.09q-2.41.8-5.48.8-3.01 0-5.25-.59-2.23-.58-3.72-1.56-1.48-.97-2.21-2.25-.72-1.27-.72-2.65 0-1.87 1.13-3.13t3.1-2.02q-1.06-.54-1.69-1.45-.62-.91-.62-2.4 0-.59.22-1.23t.65-1.26q.43-.63 1.08-1.19.65-.55 1.53-1-2.02-1.09-3.18-2.91t-1.16-4.26q0-1.98.8-3.58.79-1.6 2.21-2.73 1.41-1.13 3.35-1.73 1.94-.59 4.22-.59 1.72 0 3.23.35t2.75 1.02m28.29-.91h6.42v26.68h-3.92q-1.28 0-1.61-1.17l-.45-2.13q-1.63 1.66-3.61 2.69t-4.65 1.03q-2.19 0-3.86-.75-1.68-.74-2.83-2.09-1.14-1.35-1.72-3.21-.59-1.86-.59-4.09v-16.96h6.42v16.96q0 2.44 1.13 3.78t3.4 1.34q1.66 0 3.12-.74 1.45-.74 2.75-2.04zm12.98 0h6.44v26.68h-6.44zm7.33-7.77q0 .83-.34 1.56t-.9 1.27q-.56.55-1.31.87-.75.33-1.61.33-.83 0-1.57-.33-.75-.32-1.29-.87-.55-.54-.87-1.27-.33-.73-.33-1.56 0-.86.33-1.61.32-.76.87-1.3.54-.55 1.29-.87.74-.33 1.57-.33.86 0 1.61.33.75.32 1.31.87.56.54.9 1.3.34.75.34 1.61m11.23 8.94.44 2.11q.81-.81 1.71-1.5.89-.68 1.89-1.17 1-.48 2.15-.75 1.14-.27 2.49-.27 2.19 0 3.88.74t2.82 2.08 1.72 3.2q.58 1.86.58 4.09v16.98h-6.42v-16.98q0-2.44-1.12-3.78t-3.41-1.34q-1.66 0-3.12.75-1.45.76-2.75 2.06v19.29h-6.42v-26.68h3.92q1.25 0 1.64 1.17m33.51 11.52q1.2 0 2.08-.32.89-.33 1.47-.9.59-.57.89-1.38.3-.8.3-1.77 0-1.97-1.19-3.13-1.18-1.16-3.55-1.16-2.36 0-3.54 1.16-1.19 1.16-1.19 3.13 0 .94.3 1.75.3.8.89 1.39.58.58 1.48.91.89.32 2.06.32m7.26 15.19q0-.78-.47-1.28-.47-.49-1.27-.77-.81-.27-1.89-.4t-2.29-.19q-1.21-.07-2.49-.12-1.29-.05-2.51-.21-1.07.6-1.73 1.41-.66.8-.66 1.87 0 .7.35 1.31t1.12 1.05q.76.45 1.98.69 1.23.25 2.99.25 1.8 0 3.1-.27 1.3-.28 2.14-.76.85-.48 1.24-1.14t.39-1.44m-1.28-26.97h7.67v2.4q0 1.14-1.37 1.4l-2.4.44q.55 1.38.55 3.02 0 1.97-.79 3.57-.8 1.6-2.2 2.72t-3.31 1.73q-1.92.61-4.13.61-.78 0-1.5-.08-.73-.08-1.43-.21-1.25.76-1.25 1.69 0 .81.74 1.19.74.37 1.96.53t2.78.19q1.56.04 3.2.17t3.2.46q1.56.32 2.78 1.03 1.23.7 1.97 1.91t.74 3.1q0 1.77-.87 3.44-.88 1.66-2.53 2.96t-4.05 2.09q-2.41.8-5.48.8-3.01 0-5.25-.59-2.23-.58-3.72-1.56-1.48-.97-2.21-2.25-.72-1.27-.72-2.65 0-1.87 1.13-3.13t3.1-2.02q-1.06-.54-1.69-1.45-.62-.91-.62-2.4 0-.59.22-1.23t.65-1.26q.43-.63 1.08-1.19.65-.55 1.53-1-2.02-1.09-3.18-2.91t-1.16-4.26q0-1.98.8-3.58.79-1.6 2.21-2.73 1.41-1.13 3.35-1.73 1.94-.59 4.22-.59 1.72 0 3.23.35t2.75 1.02"/></svg>