<svg xmlns="http://www.w3.org/2000/svg" width="600" height="400" viewBox="0 0 600 400"><rect width="100%" height="100%" fill="#1A1A1A"/><path fill="#9b87f5" d="M149.77 173.085h8.24v44.1h-8.24v-19.28h-20.71v19.28h-8.23v-44.1h8.23v18.97h20.71zm33.4 36.02v-5.28q-3.27.15-5.49.57-2.23.41-3.57 1.05t-1.92 1.49q-.58.86-.58 1.86 0 1.98 1.17 2.84 1.18.85 3.07.85 2.32 0 4.01-.84 1.69-.83 3.31-2.54m-15.92-16.44-1.35-2.41q5.4-4.94 13-4.94 2.74 0 4.91.9 2.16.9 3.66 2.5 1.49 1.6 2.27 3.83.78 2.22.78 4.88v19.76h-3.42q-1.07 0-1.65-.32-.57-.32-.91-1.3l-.67-2.25q-1.19 1.06-2.32 1.87t-2.35 1.36-2.61.84q-1.38.29-3.06.29-1.98 0-3.66-.54-1.68-.53-2.9-1.6-1.22-1.06-1.89-2.65t-.67-3.69q0-1.19.4-2.36.39-1.18 1.29-2.25.9-1.06 2.34-2.01 1.43-.94 3.52-1.65 2.09-.7 4.86-1.14 2.78-.44 6.35-.53v-1.83q0-3.15-1.34-4.66-1.35-1.51-3.88-1.51-1.83 0-3.03.43-1.21.43-2.12.96-.92.54-1.66.96-.75.43-1.67.43-.79 0-1.34-.41t-.88-.96m37.88 2.38v14.03q1.28 1.55 2.79 2.19t3.28.64q1.7 0 3.08-.64 1.37-.64 2.33-1.95t1.48-3.31.52-4.71q0-2.75-.44-4.65-.45-1.91-1.27-3.1t-2-1.74q-1.17-.55-2.67-.55-2.34 0-3.99 1-1.65.99-3.11 2.79m-1.01-7.78.61 2.9q1.92-2.17 4.36-3.51t5.74-1.34q2.56 0 4.68 1.07 2.12 1.06 3.66 3.09t2.38 5q.84 2.98.84 6.82 0 3.51-.95 6.5-.95 2.98-2.7 5.18t-4.24 3.43q-2.48 1.24-5.56 1.24-2.63 0-4.49-.81t-3.32-2.24v12.81h-7.54v-41.51h4.61q1.46 0 1.92 1.37m35.66 7.78v14.03q1.28 1.55 2.79 2.19t3.27.64q1.71 0 3.09-.64 1.37-.64 2.33-1.95t1.48-3.31.52-4.71q0-2.75-.45-4.65-.44-1.91-1.26-3.1-.83-1.19-2-1.74t-2.67-.55q-2.35 0-3.99 1-1.65.99-3.11 2.79m-1.01-7.78.61 2.9q1.92-2.17 4.36-3.51t5.73-1.34q2.57 0 4.69 1.07 2.12 1.06 3.66 3.09t2.38 5q.83 2.98.83 6.82 0 3.51-.94 6.5-.95 2.98-2.7 5.18t-4.24 3.43q-2.49 1.24-5.57 1.24-2.62 0-4.48-.81t-3.32-2.24v12.81h-7.54v-41.51h4.61q1.46 0 1.92 1.37m50.51-1.37h6.04l-17.05 39.89q-.34.79-.87 1.21-.54.41-1.63.41h-5.62l5.86-12.57-12.66-28.94h6.62q.88 0 1.39.42.5.43.75.98l6.64 16.23q.34.82.57 1.64.23.83.44 1.68.28-.85.55-1.69t.61-1.66l6.28-16.2q.25-.61.81-1.01.57-.39 1.27-.39m47.52 9.18h14.64v17.84q-3.36 2.47-7.16 3.61-3.79 1.15-8.12 1.15-5.4 0-9.78-1.68t-7.47-4.67q-3.1-2.99-4.78-7.13-1.67-4.15-1.67-9.06 0-4.97 1.61-9.12 1.62-4.15 4.59-7.14 2.98-2.99 7.22-4.63 4.24-1.65 9.51-1.65 2.69 0 5.02.43 2.33.42 4.33 1.17t3.65 1.82q1.64 1.06 3.02 2.34l-2.35 3.72q-.55.89-1.44 1.09-.88.2-1.92-.44-1-.58-2.01-1.16t-2.24-1.01q-1.24-.43-2.78-.7-1.54-.28-3.55-.28-3.27 0-5.9 1.1-2.64 1.1-4.5 3.14-1.86 2.05-2.87 4.91-1.01 2.87-1.01 6.41 0 3.78 1.09 6.75 1.08 2.98 3.05 5.04 1.96 2.06 4.74 3.14t6.19 1.08q2.44 0 4.36-.52t3.75-1.4v-7.99h-5.55q-.79 0-1.23-.44-.44-.45-.44-1.09zm28.03-7.29.45 3.54q1.47-2.81 3.48-4.41t4.76-1.6q2.16 0 3.47.94l-.48 5.65q-.16.54-.45.77t-.77.23q-.46 0-1.36-.15t-1.75-.15q-1.25 0-2.23.36-.98.37-1.75 1.06-.78.68-1.38 1.66-.59.97-1.11 2.22v19.28h-7.53v-31.29h4.42q1.16 0 1.62.41.45.41.61 1.48m29.95-2.38q3.47 0 6.33 1.13 2.85 1.13 4.88 3.2 2.02 2.07 3.12 5.06t1.1 6.68q0 3.72-1.1 6.71t-3.12 5.1q-2.03 2.1-4.88 3.23-2.86 1.13-6.33 1.13-3.51 0-6.38-1.13t-4.89-3.23q-2.03-2.11-3.14-5.1-1.12-2.99-1.12-6.71 0-3.69 1.12-6.68 1.11-2.99 3.14-5.06 2.02-2.07 4.89-3.2t6.38-1.13m0 26.44q3.9 0 5.78-2.62 1.87-2.62 1.87-7.69 0-5.06-1.87-7.71-1.88-2.66-5.78-2.66-3.97 0-5.87 2.67-1.91 2.67-1.91 7.7 0 5.04 1.91 7.67 1.9 2.64 5.87 2.64m40.62-25.95h7.54v31.29h-4.61q-1.49 0-1.89-1.37l-.52-2.5q-1.92 1.95-4.24 3.15-2.32 1.21-5.46 1.21-2.56 0-4.53-.87-1.96-.87-3.31-2.46-1.34-1.58-2.02-3.76-.69-2.18-.69-4.81v-19.88h7.53v19.88q0 2.87 1.33 4.44t3.98 1.57q1.95 0 3.66-.87t3.23-2.39zm22.51 9.15v14.03q1.28 1.55 2.79 2.19t3.28.64q1.71 0 3.08-.64t2.33-1.95q.97-1.31 1.48-3.31.52-2 .52-4.71 0-2.75-.44-4.65-.44-1.91-1.27-3.1-.82-1.19-1.99-1.74-1.18-.55-2.67-.55-2.35 0-4 1-1.64.99-3.11 2.79m-1.01-7.78.61 2.9q1.93-2.17 4.37-3.51t5.73-1.34q2.56 0 4.68 1.07 2.12 1.06 3.66 3.09t2.38 5q.84 2.98.84 6.82 0 3.51-.95 6.5-.94 2.98-2.69 5.18-1.76 2.2-4.24 3.43-2.49 1.24-5.57 1.24-2.62 0-4.48-.81t-3.33-2.24v12.81h-7.53v-41.51h4.6q1.47 0 1.92 1.37"/></svg>